#!OML:ASF H:\charlestonDancing\Project 1\Capture day 1\Session 1\femaleDancer.ASF
:FULLY-SPECIFIED
:DEGREES
127
root -0.133712 17.3879 -1.88617 98.777 -85.2894 -98.0404
lowerback 23.7623 2.91921 10.0867
upperback 6.25609 5.79344 2.18183
thorax -5.4398 2.53768 -4.87988
lowerneck 3.15114 0.14526 4.01636
upperneck -1.79662 0.239027 -4.69887
head -1.09555 0.156833 -2.18119
rclavicle -7.79236e-014 3.97569e-015
rhumerus -50.9324 -21.9442 -49.6928
rradius 27.674
rwrist 25.9614
rhand -40.5319 -47.51
rfingers 7.12502
rthumb -13.4805 -77.0537
lclavicle -7.79236e-014 3.97569e-015
lhumerus -62.4246 26.6723 0.182674
lradius 137.566
lwrist 12.9636
lhand -11.7126 -6.86151
lfingers 7.12502
lthumb 14.334 22.6237
rfemur -19.6873 -6.59621 31.4454
rtibia 40.3567
rfoot -20.3557 -1.84793
rtoes -2.262
lfemur -48.0856 -10.9617 -12.2065
ltibia 54.8771
lfoot -11.2159 -7.61205
ltoes -31.1287
128
root -0.122594 17.46 -1.90422 92.2072 -85.4511 -91.1524
lowerback 23.5224 2.93462 10.1403
upperback 6.19005 5.80841 2.04187
thorax -5.36755 2.55555 -5.05106
lowerneck 2.83143 -0.0260728 4.27483
upperneck -0.996114 0.0348679 -4.55885
head -0.796466 0.0473346 -2.17062
rclavicle 1.55052e-014 1.03368e-014
rhumerus -50.1687 -20.898 -52.747
rradius 29.4742
rwrist 23.5659
rhand -40.694 -47.4582
rfingers 7.12502
rthumb -13.6367 -76.9915
lclavicle 1.55052e-014 1.03368e-014
lhumerus -61.339 26.7004 2.10167
lradius 137.999
lwrist 11.4891
lhand -11.9173 -6.99971
lfingers 7.12502
lthumb 14.1367 22.4994
rfemur -19.577 -6.65781 31.3013
rtibia 39.4106
rfoot -19.9072 -1.86992
rtoes -1.20723
lfemur -49.5258 -10.7229 -13.0163
ltibia 61.3024
lfoot -10.7482 -7.38925
ltoes -24.676
129
root -0.108987 17.55 -1.91853 86.6955 -85.8002 -85.3794
lowerback 23.4387 2.92068 9.96805
upperback 6.13246 5.74298 1.80767
thorax -5.39245 2.52991 -5.19196
lowerneck 2.49001 -0.105709 4.53256
upperneck -0.188961 -0.0568271 -4.65004
head -0.489238 -0.00285804 -2.24084
rclavicle -1.90833e-014 4.53229e-014
rhumerus -49.1538 -19.7509 -55.9287
rradius 31.2594
rwrist 21.8322
rhand -40.7617 -47.5767
rfingers 7.12502
rthumb -13.702 -77.1056
lclavicle -1.90833e-014 4.53229e-014
lhumerus -60.4273 26.4865 4.03379
lradius 138.251
lwrist 9.8531
lhand -12.3087 -7.08445
lfingers 7.12502
lthumb 13.7595 22.4406
rfemur -19.2749 -6.59763 30.8146
rtibia 38.2788
rfoot -19.259 -1.91336
rtoes -2.41432
lfemur -50.7267 -10.3049 -14.183
ltibia 67.8686
lfoot -10.7838 -6.71893
ltoes -26.3314
130
root -0.0915693 17.6489 -1.92928 80.3524 -86.2981 -78.8495
lowerback 23.495 2.85002 9.6461
upperback 6.09252 5.57655 1.50911
thorax -5.49395 2.45116 -5.30516
lowerneck 2.34332 -0.0974373 4.56612
upperneck 0.28122 -0.0383286 -4.53487
head -0.315357 0.00387492 -2.20708
rclavicle -2.38542e-015 -1.35174e-014
rhumerus -47.9883 -18.5754 -59.1154
rradius 33.0435
rwrist 20.5705
rhand -40.9596 -47.822
rfingers 7.12502
rthumb -13.8927 -77.338
lclavicle -2.38542e-015 -1.35174e-014
lhumerus -59.6295 26.1702 5.95951
lradius 138.305
lwrist 8.08424
lhand -12.9227 -7.15586
lfingers 7.12502
lthumb 13.1677 22.4083
rfemur -18.8311 -6.672 30.0753
rtibia 37.0651
rfoot -18.5715 -1.95674
rtoes -5.68613
lfemur -51.695 -9.86921 -15.5846
ltibia 74.4657
lfoot -10.4334 -6.44626
ltoes -24.6254
131
root -0.0683088 17.7569 -1.94082 71.9828 -86.7598 -70.2713
lowerback 23.6083 2.79374 9.30464
upperback 6.06001 5.42717 1.22593
thorax -5.61715 2.37854 -5.39802
lowerneck 2.01776 0.0113049 4.40144
upperneck 0.707461 0.101273 -4.23591
head -0.118982 0.0690752 -2.07817
rclavicle 5.04913e-014 -3.97569e-015
rhumerus -46.7055 -17.6665 -62.0364
rradius 34.7465
rwrist 19.8202
rhand -41.2455 -47.6737
rfingers 7.12502
rthumb -14.1682 -77.1706
lclavicle 5.04913e-014 -3.97569e-015
lhumerus -58.9885 25.8339 7.51673
lradius 138.358
lwrist 6.81774
lhand -13.47 -7.32093
lfingers 7.12502
lthumb 12.6401 22.2766
rfemur -18.5273 -6.91311 29.3111
rtibia 36.0265
rfoot -17.7755 -1.75804
rtoes -8.69161
lfemur -52.6074 -9.51971 -16.9423
ltibia 81.0749
lfoot -9.77608 -6.15936
ltoes -21.8943
132
root -0.0410765 17.8544 -1.95356 62.6429 -86.9704 -60.6893
lowerback 23.7279 2.76895 9.10063
upperback 6.0264 5.35528 1.05259
thorax -5.72971 2.34116 -5.46663
lowerneck 1.19754 0.267337 3.85695
upperneck 1.55815 0.419599 -3.61651
head 0.297112 0.218746 -1.77786
rclavicle -2.3059e-014 -1.74931e-014
rhumerus -45.2747 -16.8058 -64.6899
rradius 36.3721
rwrist 19.2421
rhand -41.5036 -47.6398
rfingers 7.12502
rthumb -14.4169 -77.119
lclavicle -2.3059e-014 -1.74931e-014
lhumerus -58.4206 25.4805 8.73273
lradius 138.375
lwrist 6.05362
lhand -13.7736 -7.60877
lfingers 7.12502
lthumb 12.3474 22.0066
rfemur -18.4154 -7.18406 28.7245
rtibia 35.2172
rfoot -17.0522 -1.35362
rtoes -11.9892
lfemur -53.518 -9.21808 -18.0551
ltibia 87.6577
lfoot -9.55446 -5.65375
ltoes -22.3592
133
root -0.0139894 17.9064 -1.96082 52.3012 -86.9627 -50.0294
lowerback 23.7144 2.69282 9.01399
upperback 5.99741 5.23607 0.950862
thorax -5.77178 2.28438 -5.50034
lowerneck 1.1566 0.274965 3.96634
upperneck 1.51488 0.431839 -4.01498
head 0.292757 0.223941 -1.92685
rclavicle -4.29375e-014 2.38542e-015
rhumerus -43.6009 -15.7454 -67.1621
rradius 37.8771
rwrist 18.6299
rhand -41.6564 -47.9684
rfingers 7.12502
rthumb -14.5641 -77.4371
lclavicle -4.29375e-014 2.38542e-015
lhumerus -57.9409 25.1596 9.68538
lradius 138.303
lwrist 5.49169
lhand -13.9927 -7.90142
lfingers 7.12502
lthumb 12.1362 21.7266
rfemur -18.5825 -7.58272 28.2063
rtibia 34.7557
rfoot -16.5687 -0.677461
rtoes -15.5806
lfemur -54.6084 -9.10482 -19.0383
ltibia 94.2903
lfoot -9.58455 -5.28079
ltoes -24.3685
134
root 0.0147995 17.9647 -1.96312 39.6323 -86.9684 -36.9647
lowerback 23.5768 2.60956 8.76876
upperback 5.98727 5.05688 0.824958
thorax -5.75255 2.20511 -5.44661
lowerneck 1.00084 0.29784 3.83971
upperneck 1.52998 0.457778 -4.15928
head 0.325105 0.23419 -1.95098
rclavicle -8.34896e-015 -1.51076e-014
rhumerus -41.7788 -14.4663 -69.4287
rradius 39.4639
rwrist 17.9285
rhand -41.4247 -48.1537
rfingers 7.12502
rthumb -14.3409 -77.6384
lclavicle -8.34896e-015 -1.51076e-014
lhumerus -57.6553 24.9184 10.2987
lradius 138.273
lwrist 5.2344
lhand -14.3848 -8.03062
lfingers 7.12502
lthumb 11.7581 21.6194
rfemur -18.9331 -7.9759 27.429
rtibia 34.5351
rfoot -16.1912 0.412483
rtoes -17.6369
lfemur -55.5083 -9.21486 -20.2145
ltibia 100.607
lfoot -9.81269 -5.36725
ltoes -25.0467
135
root 0.0493373 17.9966 -1.9651 30.846 -86.891 -27.8346
lowerback 23.5373 2.59589 8.59722
upperback 5.96748 4.99775 0.767389
thorax -5.77485 2.17876 -5.3969
lowerneck 0.786346 0.296915 3.648
upperneck 1.55893 0.449888 -4.18233
head 0.369633 0.2269 -1.92388
rclavicle 6.83819e-014 1.59028e-014
rhumerus -40.0789 -13.1476 -71.3344
rradius 41.2404
rwrist 17.3295
rhand -41.1825 -48.2802
rfingers 7.12502
rthumb -14.1075 -77.7813
lclavicle 6.83819e-014 1.59028e-014
lhumerus -57.3982 24.7031 10.5709
lradius 138.235
lwrist 5.33862
lhand -14.7554 -8.0507
lfingers 7.12502
lthumb 11.4007 21.6194
rfemur -19.4001 -8.07652 26.7949
rtibia 34.5257
rfoot -16.1459 1.63299
rtoes -18.9879
lfemur -56.3143 -9.2296 -21.2243
ltibia 106.785
lfoot -9.7941 -5.84665
ltoes -25.2807
136
root 0.0898254 17.9931 -1.96872 29.472 -86.7339 -26.2523
lowerback 23.6631 2.61067 8.70741
upperback 5.95049 5.06018 0.84401
thorax -5.8452 2.20232 -5.40045
lowerneck 0.481448 0.280594 3.57118
upperneck 1.68248 0.424782 -4.46166
head 0.459847 0.208805 -2.00136
rclavicle 2.78299e-015 -1.27222e-014
rhumerus -38.4794 -11.9525 -72.7851
rradius 43.0608
rwrist 17.3452
rhand -41.0159 -48.3602
rfingers 7.12502
rthumb -13.947 -77.8724
lclavicle 2.78299e-015 -1.27222e-014
lhumerus -57.1311 24.5238 10.4387
lradius 138.091
lwrist 5.69426
lhand -14.8249 -8.00209
lfingers 7.12502
lthumb 11.3336 21.6717
rfemur -19.74 -7.98018 26.6336
rtibia 34.4727
rfoot -16.507 2.41473
rtoes -22.8128
lfemur -57.0415 -8.96232 -21.8036
ltibia 112.86
lfoot -9.80054 -6.50656
ltoes -25.6383
137
root 0.132276 17.9568 -1.9728 29.3713 -86.5767 -26.1431
lowerback 23.9765 2.6241 8.88235
upperback 5.99157 5.14747 0.987681
thorax -5.94254 2.2329 -5.3837
lowerneck 0.112438 0.237942 3.51155
upperneck 1.79626 0.366135 -4.95064
head 0.557915 0.170811 -2.15156
rclavicle -4.8901e-014 -3.26007e-014
rhumerus -36.9263 -10.8528 -73.8159
rradius 45.0562
rwrist 17.8064
rhand -40.7132 -48.1226
rfingers 7.12502
rthumb -13.6552 -77.6547
lclavicle -4.8901e-014 -3.26007e-014
lhumerus -56.831 24.4152 10.0576
lradius 137.904
lwrist 6.22132
lhand -14.8623 -7.68552
lfingers 7.12502
lthumb 11.2976 21.9902
rfemur -19.8383 -7.96872 26.6773
rtibia 34.3861
rfoot -17.3701 2.96747
rtoes -19.6753
lfemur -57.4489 -8.57138 -22.3416
ltibia 118.701
lfoot -9.42236 -7.20022
ltoes -25.7232
138
root 0.176306 17.9029 -1.9773 27.9062 -86.3667 -24.8366
lowerback 24.5066 2.61582 9.05199
upperback 6.02797 5.22937 1.17573
thorax -6.16032 2.25122 -5.32983
lowerneck -0.0616465 0.162152 3.34105
upperneck 1.67712 0.261356 -5.40697
head 0.547049 0.111833 -2.27122
rclavicle 1.19271e-015 2.38542e-014
rhumerus -35.5639 -9.67304 -74.4968
rradius 47.2931
rwrist 18.2882
rhand -40.5678 -47.7983
rfingers 7.12502
rthumb -13.5151 -77.3397
lclavicle 1.19271e-015 2.38542e-014
lhumerus -56.4451 24.3345 9.61045
lradius 137.693
lwrist 6.84053
lhand -14.8921 -7.27098
lfingers 7.12502
lthumb 11.2688 22.4063
rfemur -19.7113 -8.31093 26.828
rtibia 34.1255
rfoot -18.1335 2.8732
rtoes -15.8532
lfemur -57.4521 -8.16047 -22.9514
ltibia 124.089
lfoot -9.77349 -7.89196
ltoes -27.4549
139
root 0.223345 17.8409 -1.98017 26.9427 -85.9783 -24.1298
lowerback 25.1631 2.53511 9.37891
upperback 6.00779 5.28519 1.44651
thorax -6.50045 2.24512 -5.27746
lowerneck 0.0719776 0.0920509 2.96678
upperneck 1.40375 0.161666 -5.69008
head 0.433729 0.0609633 -2.29571
rclavicle 2.8625e-014 2.54444e-014
rhumerus -34.5314 -8.41152 -74.8382
rradius 49.7636
rwrist 18.8213
rhand -40.3835 -47.3155
rfingers 7.12502
rthumb -13.3375 -76.8687
lclavicle 2.8625e-014 2.54444e-014
lhumerus -56.0116 24.27 9.26178
lradius 137.425
lwrist 7.39095
lhand -14.7016 -7.17971
lfingers 7.12502
lthumb 11.4525 22.4875
rfemur -19.569 -8.97173 27.1847
rtibia 33.9956
rfoot -18.454 2.37198
rtoes -12.6641
lfemur -57.0799 -7.70591 -23.419
ltibia 128.918
lfoot -9.97788 -8.51389
ltoes -26.2925
140
root 0.2726 17.8162 -1.98265 26.3704 -85.4746 -23.7717
lowerback 25.7636 2.45031 9.83663
upperback 5.94351 5.38 1.75215
thorax -6.84524 2.25442 -5.26717
lowerneck 0.423618 -0.0172361 2.52265
upperneck 1.06759 0.00472624 -5.80478
head 0.260778 -0.0126629 -2.25161
rclavicle 5.40694e-014 9.54166e-015
rhumerus -33.7884 -7.25675 -74.8717
rradius 52.4679
rwrist 19.2627
rhand -40.298 -47.1975
rfingers 7.12502
rthumb -13.2551 -76.7561
lclavicle 5.40694e-014 9.54166e-015
lhumerus -55.442 24.2257 9.20206
lradius 137.157
lwrist 7.84491
lhand -14.4821 -7.23219
lfingers 7.12502
lthumb 11.6642 22.4231
rfemur -19.4536 -9.50868 27.5679
rtibia 33.8157
rfoot -18.3086 1.73399
rtoes -10.2543
lfemur -56.312 -7.01729 -23.6807
ltibia 132.832
lfoot -10.3483 -8.95764
ltoes -26.9988
141
root 0.325267 17.7625 -1.98361 24.7557 -85.0012 -22.3682
lowerback 26.374 2.41159 10.205
upperback 5.90209 5.51505 2.03432
thorax -7.16933 2.28413 -5.24279
lowerneck 0.46093 -0.140206 2.25238
upperneck 1.06446 -0.162611 -6.04514
head 0.245975 -0.0991194 -2.28172
rclavicle -3.89618e-014 3.18055e-015
rhumerus -33.0872 -6.16121 -74.6336
rradius 55.1848
rwrist 19.5368
rhand -40.2526 -47.6724
rfingers 7.12502
rthumb -13.2113 -77.2338
lclavicle -3.89618e-014 3.18055e-015
lhumerus -54.8698 24.2805 9.39398
lradius 136.923
lwrist 8.19641
lhand -14.4177 -7.15453
lfingers 7.12502
lthumb 11.7263 22.4973
rfemur -19.6131 -9.86704 27.7471
rtibia 33.9989
rfoot -18.208 1.25636
rtoes -8.33269
lfemur -55.5569 -6.17724 -23.9596
ltibia 136.132
lfoot -10.6643 -9.07251
ltoes -31.2925
